PathFileType	4	(X/Y/Z)	C:\Users\Basilio\Documents\Thesis Gigler\squatting_fais\c3dfiles\077\SLS_back_pre3\markers_experimental.trc
DataRate	CameraRate	NumFrames	NumMarkers	Units	OrigDataRate	OrigDataStartFrame	OrigNumFrames
200.000000	200.000000	4	60	mm	200.000000	1022	1636
Frame#	Time	FHD			LBHD			RBHD			C7			T10			CLAV			LSHO			LUUPA			LMUPA			LDUPA			LLEP			LMEP			LRAD			LUL			LRFIN			RSHO			RUPA1			RMUPA			RDUPA			RLEP			RMEP			RRAD			RUL			RUFIN			LASI			RASI			USACR			LSACR			RSACR			LTHI1			LTHI2			LTHI3			LTHI4			LLFC			LMFC			LTIB1			LTIB2			LTIB3			LTIB4			LLMAL			LHEE			LMT1			LMT2			LMT5			RTHI			RTHI2			RTHI3			RTHI4			RLFC			RMFC			RTIB1			RTIB2			RTIB3			RTIB4			RLMAL			RMMAL			RHEE			RMT1			RMT2			RMT5			
		X1	Y1	Z1	X2	Y2	Z2	X3	Y3	Z3	X4	Y4	Z4	X5	Y5	Z5	X6	Y6	Z6	X7	Y7	Z7	X8	Y8	Z8	X9	Y9	Z9	X10	Y10	Z10	X11	Y11	Z11	X12	Y12	Z12	X13	Y13	Z13	X14	Y14	Z14	X15	Y15	Z15	X16	Y16	Z16	X17	Y17	Z17	X18	Y18	Z18	X19	Y19	Z19	X20	Y20	Z20	X21	Y21	Z21	X22	Y22	Z22	X23	Y23	Z23	X24	Y24	Z24	X25	Y25	Z25	X26	Y26	Z26	X27	Y27	Z27	X28	Y28	Z28	X29	Y29	Z29	X30	Y30	Z30	X31	Y31	Z31	X32	Y32	Z32	X33	Y33	Z33	X34	Y34	Z34	X35	Y35	Z35	X36	Y36	Z36	X37	Y37	Z37	X38	Y38	Z38	X39	Y39	Z39	X40	Y40	Z40	X41	Y41	Z41	X42	Y42	Z42	X43	Y43	Z43	X44	Y44	Z44	X45	Y45	Z45	X46	Y46	Z46	X47	Y47	Z47	X48	Y48	Z48	X49	Y49	Z49	X50	Y50	Z50	X51	Y51	Z51	X52	Y52	Z52	X53	Y53	Z53	X54	Y54	Z54	X55	Y55	Z55	X56	Y56	Z56	X57	Y57	Z57	X58	Y58	Z58	X59	Y59	Z59	X60	Y60	Z60	

1023	5.11	-8.751510620117189	1468.393676757813	-1109.725952148438	-158.4672088623047	1367.730712890625	-1171.718139648438	-158.2471008300782	1366.306030273438	-1027.167236328125	-211.4577636718751	1268.528442382813	-1101.63671875	-379.8509826660157	1014.758483886719	-1022.453552246094	-76.55252838134767	1158.289428710938	-1092.937377929688	-97.1827087402344	1228.26220703125	-1248.008544921875	40.96429824829102	1190.396118164063	-1372.106201171875	73.78160095214845	1215.266235351563	-1343.602905273438	108.4573364257813	1188.252563476563	-1386.01708984375	173.543701171875	1196.620239257813	-1386.42724609375	181.3673858642578	1123.718505859375	-1368.864379882813	474.1202697753907	1218.255493164063	-1296.171875	475.0698242187501	1227.391723632813	-1375.412231445313	573.4118041992189	1246.313232421875	-1309.451904296875	-86.25555419921876	1246.420043945313	-960.753356933594	56.76616668701173	1232.6279296875	-833.9838867187502	86.31941986083986	1248.537841796875	-869.8896484375002	126.551872253418	1229.8076171875	-828.3828735351565	192.4362945556641	1230.40185546875	-834.5106201171877	195.1466369628907	1153.307373046875	-848.072448730469	472.6313781738282	1232.133422851563	-936.9989013671877	487.852752685547	1252.540771484375	-862.7048339843752	567.9120483398439	1259.694946289063	-945.4282836914065	nan	nan	nan	-336.4646301269532	746.9346313476564	-894.5319824218752	-452.0342407226564	938.8218994140627	-1008.839233398438	-477.8892517089845	928.6823730468752	-1040.381103515625	-478.3176574707032	912.4185791015627	-986.068298339844	-306.2200012207032	671.8077392578126	-1234.482177734375	-228.8332061767579	640.3251342773439	-1225.28271484375	-196.4844818115235	676.2119750976564	-1213.950927734375	-210.9478454589844	583.9450683593751	-1217.002197265625	-96.76959991455081	490.1473388671876	-1169.617919921875	-100.8339385986328	488.5885314941407	-1042.174438476563	-150.2262420654297	293.2880249023438	-1067.07373046875	-194.2337799072266	255.0375213623047	-1135.780639648438	-171.6739807128907	245.8932037353516	-1095.7763671875	-220.8417053222657	189.5601654052735	-1056.612060546875	-324.7006225585938	105.8727569580078	-1099.614868164063	-395.9239196777345	83.02783203125001	-1044.809692382813	-181.2362060546875	57.55690383911134	-1063.515991210938	-192.3361358642579	43.34722137451173	-1111.371704101563	-301.0957031250001	122.8458938598633	-1012.790954589844	-417.3027648925782	453.9746093750001	-855.6226806640627	-370.8129577636719	401.8033752441407	-855.700622558594	-337.4894714355469	405.0062866210939	-858.5860595703127	-396.9484863281251	326.9517517089844	-880.129821777344	-409.6762695312501	294.6701354980469	-894.830261230469	-376.5965270996094	279.7031555175782	-1022.539855957031	-521.9125366210939	262.8181762695313	-964.0212402343752	-594.7708740234376	338.4156188964844	-942.362487792969	-598.9065551757814	301.5077514648438	-971.9129638671877	-626.9632568359376	319.3273010253907	-1022.487731933594	-787.5982055664065	421.6665954589845	-1020.741882324219	-757.0980834960939	408.9793395996095	-1108.443725585938	-763.2365112304689	498.9808044433595	-1057.811645507813	-891.3919677734377	332.8268432617188	-1146.383056640625	-906.3330078125002	328.0900878906251	-1107.460083007813	-933.6466064453127	349.1695556640626	-1066.23876953125	
1024	5.115	-9.184036254882814	1468.895751953125	-1109.411743164063	-159.0260772705078	1367.918090820313	-1171.558715820313	-158.8253173828125	1366.778564453125	-1027.141235351563	-211.5986022949219	1268.85595703125	-1101.501098632813	-380.1414489746094	1015.026794433594	-1022.627624511719	-76.86557006835939	1158.894775390625	-1092.994262695313	-97.38135528564456	1228.815307617188	-1247.950439453125	40.71119689941407	1191.134521484375	-1371.940795898438	73.77122497558595	1215.788208007813	-1343.391235351563	108.599594116211	1188.575561523438	-1385.29638671875	173.2339935302735	1197.245727539063	-1386.35791015625	180.9976806640625	1124.38623046875	-1368.564086914063	474.1510314941407	1219.229858398438	-1295.870361328125	474.9891967773439	1228.142333984375	-1375.050048828125	572.7724609375001	1246.505859375	-1309.373657226563	-86.79817962646486	1247.072387695313	-960.7132568359377	56.29192352294923	1233.267822265625	-833.7959594726565	85.67102813720705	1249.005859375	-869.6640625000002	126.0668334960938	1230.474853515625	-828.1943359375002	191.9043884277344	1231.0576171875	-834.3558349609377	194.5685729980469	1153.892822265625	-847.8814086914065	472.0750427246095	1233.27197265625	-936.7847290039065	487.3549804687501	1253.363159179688	-862.3740844726565	567.4324951171876	1260.96923828125	-945.4246826171877	nan	nan	nan	-336.4941101074219	747.4758300781251	-894.4335937500002	-452.2783508300782	939.088806152344	-1008.947387695313	-478.0411071777345	928.9566650390627	-1040.546752929688	-478.6262207031251	912.6453857421877	-986.279968261719	-306.1618347167969	672.0173950195314	-1234.445068359375	-228.9053039550782	640.5307006835939	-1225.158569335938	-196.379135131836	676.2997436523439	-1213.747680664063	-212.4549255371094	584.6660766601564	-1217.41162109375	-96.94927215576175	490.2190551757814	-1169.3515625	-101.032943725586	488.6802062988282	-1041.897827148438	-150.2183685302735	293.4893798828126	-1066.857055664063	-194.2156829833985	255.1926879882813	-1135.519897460938	-171.6411437988282	245.9525909423829	-1095.56005859375	-220.8701629638672	189.6290283203125	-1056.511840820313	-324.5328979492188	105.830062866211	-1099.529663085938	-395.8963623046876	83.0481414794922	-1044.7841796875	-181.2618103027344	57.38258743286134	-1063.3662109375	-192.1952362060547	43.35864257812501	-1111.31298828125	-301.1432189941407	122.8438720703125	-1012.624755859375	-416.6055908203126	454.3540039062501	-855.5321044921877	-369.9243164062501	402.3658142089845	-855.7305297851565	-336.6433410644532	405.5273742675782	-858.6231689453127	-395.9112854003907	327.3016052246094	-880.1790161132815	-408.5820617675782	295.0563049316407	-894.907653808594	-375.5404968261719	280.4645080566407	-1022.458557128906	-520.5631713867189	263.0893249511719	-964.2153930664065	-593.8095703125001	338.2524414062501	-942.6170043945315	-597.7279052734376	301.3867797851563	-972.195251464844	-625.7692871093751	319.1878662109376	-1022.696533203125	-786.5699462890627	421.1270751953126	-1021.06640625	-756.0288696289064	408.6668090820314	-1108.785888671875	-762.3995361328126	498.5779418945314	-1058.0087890625	-889.9047851562502	332.1120300292969	-1145.946899414063	-905.1356201171877	327.6504211425782	-1108.077514648438	-932.6306152343752	348.4252929687501	-1066.756591796875	
1025	5.12	-9.562134742736818	1469.244873046875	-1109.160034179688	-159.5792541503907	1368.3935546875	-1171.3603515625	-159.34521484375	1367.148803710938	-1026.7421875	-212.0754699707032	1269.422973632813	-1101.4794921875	-380.4299926757813	1015.444702148438	-1022.736877441406	-77.52901458740236	1159.639282226563	-1092.898071289063	-97.31445312500003	1229.517700195313	-1247.813720703125	40.51666641235352	1191.831909179688	-1372.04443359375	73.62723541259767	1216.379150390625	-1343.292114257813	108.6715469360352	1189.34423828125	-1385.4208984375	173.4162292480469	1197.93603515625	-1385.964965820313	180.4756164550782	1125.335693359375	-1368.307495117188	473.9105529785157	1220.016357421875	-1295.491943359375	474.8386535644532	1228.842651367188	-1374.712646484375	572.5741577148439	1247.269409179688	-1308.943481445313	-87.38925170898439	1247.491088867188	-960.7039794921877	55.79151535034181	1234.013793945313	-833.6504516601565	85.15589904785158	1249.625	-869.5810546875002	125.4213790893555	1231.128784179688	-827.9741821289065	191.3143920898438	1231.799682617188	-834.1043090820315	194.0119171142579	1154.635986328125	-847.7827758789065	471.5520935058595	1233.89990234375	-936.1984863281252	486.7864990234376	1254.231201171875	-862.1883544921877	566.8516235351564	1261.99853515625	-944.972351074219	nan	nan	nan	-336.6322021484376	747.9700927734376	-894.467224121094	-452.4714355468751	939.453063964844	-1009.085083007813	-478.1734619140626	929.3835449218752	-1040.704711914063	-478.8413085937501	913.0399169921877	-986.4132080078127	-306.0664672851563	672.1797485351564	-1234.302124023438	-228.8506469726563	640.7495727539064	-1224.973022460938	-196.492172241211	676.4565429687501	-1213.608520507813	-210.9566192626954	584.0598144531251	-1216.743408203125	-96.944694519043	490.2288513183595	-1169.05810546875	-101.165756225586	488.851043701172	-1041.574096679688	-150.1354522705078	293.7834777832032	-1066.642578125	-194.2643280029297	255.3499755859376	-1135.41552734375	-171.7323150634766	246.2057342529297	-1095.43798828125	-220.9244079589844	189.6343536376953	-1056.392944335938	-324.4777832031251	105.8536987304688	-1099.39306640625	-395.8601074218751	83.02880096435548	-1044.724853515625	-181.284408569336	57.47111129760744	-1063.37060546875	-192.2630157470704	43.45556640625001	-1111.265625	-301.2054138183594	122.9230346679688	-1012.507629394531	-415.9666748046876	454.727508544922	-855.335876464844	-368.8641357421876	403.2694702148439	-855.6831054687502	-335.9473571777344	405.7356262207032	-858.9520263671877	-394.5657348632814	328.0377197265626	-880.215515136719	-407.3488159179689	295.5109863281251	-895.0205688476565	-374.2153625488282	281.1773376464844	-1022.706787109375	-519.1638793945314	263.2534179687501	-964.4609985351565	-592.5823974609376	338.2010498046876	-942.852966308594	-596.4427490234376	301.3197021484376	-972.515319824219	-625.9172363281251	318.7028503417969	-1022.907470703125	-785.587341308594	420.398651123047	-1021.289367675781	-754.9338378906251	408.2394104003907	-1109.143310546875	-761.1771850585939	497.7667846679689	-1058.078247070313	-889.175964355469	331.8898925781251	-1147.039184570313	-904.0049438476565	327.3247375488282	-1108.841552734375	-931.5467529296877	347.8518066406251	-1067.371948242188	
1026	5.125	-10.61820793151856	1470.44091796875	-1109.150756835938	-160.1108703613282	1369.15283203125	-1171.368408203125	-159.7937622070313	1367.599853515625	-1026.441040039063	-212.6227569580079	1270.061401367188	-1101.41455078125	-380.7322692871094	1015.845886230469	-1022.86376953125	-77.98597717285158	1160.269165039063	-1092.878662109375	-97.73143005371097	1230.310791015625	-1247.802490234375	40.31895065307618	1192.533203125	-1371.9296875	73.17092895507814	1217.099975585938	-1343.214233398438	108.3461151123047	1190.131591796875	-1385.342041015625	173.3848876953125	1198.495483398438	-1385.817016601563	180.3964538574219	1126.060668945313	-1368.55615234375	473.6156005859376	1220.674438476563	-1295.173461914063	475.1205139160157	1229.386108398438	-1374.278686523438	572.3415527343751	1248.046264648438	-1308.439819335938	-87.89665985107423	1248.079711914063	-960.6079101562502	55.2223358154297	1234.569458007813	-833.4645996093752	84.54213714599611	1250.298095703125	-869.3245239257815	124.8710708618164	1231.714477539063	-827.7666015625002	190.7346496582032	1232.534790039063	-833.9046630859377	193.5525512695313	1155.313842773438	-847.6087036132815	470.9615173339845	1235.390014648438	-936.0894775390627	486.1381835937501	1255.233276367188	-861.9665527343752	566.2268676757814	1263.306396484375	-944.5205078125002	nan	nan	nan	-336.6994934082032	748.6567993164064	-894.4207153320315	-452.1961975097657	940.0093994140627	-1009.453125	-477.0488891601564	930.017761230469	-1041.513305664063	-479.0537109375001	913.3716430664065	-986.6049804687502	-306.0138549804688	672.3745727539064	-1234.233032226563	-228.7513885498047	640.9562377929689	-1224.757080078125	-196.4431304931641	676.7148437500001	-1213.477905273438	-211.5357818603516	584.4941406250001	-1216.728271484375	-97.14934539794925	490.488983154297	-1168.639770507813	-101.3444900512696	489.0198974609376	-1041.182983398438	-150.14453125	293.9201049804688	-1066.346435546875	-194.3536071777344	255.4588928222657	-1135.090454101563	-171.6700286865235	246.1768188476563	-1095.053466796875	-220.9645080566407	189.7702941894532	-1056.173583984375	-324.4552612304688	105.9333724975586	-1099.312133789063	-395.8570556640626	83.04914855957033	-1044.713134765625	-181.3709716796875	57.565975189209	-1063.296142578125	-192.4177703857422	43.52835845947266	-1111.270751953125	-301.2740478515626	122.9381484985352	-1012.397033691406	-415.2603454589845	455.1500549316407	-855.2937622070315	-367.9089050292969	403.8772583007814	-855.606384277344	-335.2669677734376	406.1638488769532	-859.068786621094	-393.3709716796876	328.5514221191407	-880.320007324219	-406.0521240234376	295.9871826171876	-895.163757324219	-372.8674621582032	281.7797241210938	-1022.542236328125	-517.6240234375001	263.4996337890626	-964.820739746094	-591.4763793945314	337.9385375976563	-943.1934204101565	-595.1446533203126	301.2907714843751	-972.868591308594	-624.5800170898439	318.4635009765626	-1023.308471679688	-784.6121215820315	419.9729003906251	-1021.630004882813	-753.6540527343751	407.6992187500001	-1109.355346679688	-760.0772705078126	497.4513244628907	-1058.26513671875	-887.976013183594	331.4942626953126	-1147.471313476563	-902.9327392578127	326.6296691894532	-1109.034301757813	-930.5041503906252	347.3058166503907	-1067.8466796875	
